<?xml version="1.0" standalone="no"?><!DOCTYPE svg PUBLIC "-//W3C//DTD SVG 1.1//EN" "http://www.w3.org/Graphics/SVG/1.1/DTD/svg11.dtd"><svg t="1581417233291" class="icon" viewBox="0 0 1024 1024" version="1.1" xmlns="http://www.w3.org/2000/svg" p-id="5405" xmlns:xlink="http://www.w3.org/1999/xlink" width="200" height="200"><defs><style type="text/css"></style></defs><path d="M843.272869 541.088502c-0.324388 0-0.624217-0.093121-0.949628-0.095167l-356.243587 42.450834c0.036839 0.109494 0.052189 0.229221 0.089028 0.339738l-97.952916 10.956539c-11.42419 0-20.684088 9.257851-20.684088 20.682042 0 0.125867 0.070608 0.229221 0.072655 0.354064l2.446725 9.024537c3.446495 6.635117 10.174734 11.30651 18.164708 11.30651l101.33699 0 43.453674 0 372.319727 0c22.848381 0 41.3692 18.522865 41.3692 41.3692 0 22.848381-18.520819 41.3692-41.3692 41.3692L388.215766 718.845998c-2.856048 0-5.644557-0.287549-8.337899-0.840134-47.376007-3.845585-85.629239-39.291888-93.427856-85.362156L169.556721 201.735607l-50.883901 0c-22.848381 0-41.3692-18.522865-41.3692-41.3692 0-22.848381 18.520819-41.371246 41.3692-41.371246l82.737376 0c20.270672 0 37.062104 14.603603 40.609906 33.847899l100.496855 370.462426c3.946892-1.950422 7.951089-3.811816 12.159948-5.263887 3.437286-1.603521 7.098675-2.804882 11.018961-3.418866 3.450589-0.769526 7.055696-1.00898 10.628058-1.423419l368.958166-43.964304c-0.049119-0.155543-0.072655-0.320295-0.121773-0.475837L822.588781 460.289268c22.848381 0 41.3692-18.520819 41.3692-41.367153l0-82.59309 0-10.486842L739.853451 325.842183 388.215766 325.842183c-22.848381 0-41.3692-18.522865-41.3692-41.3692 0-22.848381 18.520819-41.371246 41.3692-41.371246l517.110391 0c22.848381 0 41.3692 18.522865 41.3692 41.371246l0 153.195078 0 0C946.695357 494.785943 900.390751 541.088502 843.272869 541.088502zM377.874233 801.581328c28.559453 0 51.710732 23.152303 51.710732 51.712779 0 28.557406-23.152303 51.708686-51.710732 51.708686s-51.710732-23.152303-51.710732-51.708686C326.162478 824.733631 349.314781 801.581328 377.874233 801.581328zM853.615425 801.581328c28.559453 0 51.710732 23.152303 51.710732 51.712779 0 28.557406-23.152303 51.708686-51.710732 51.708686-28.559453 0-51.710732-23.152303-51.710732-51.708686C801.904693 824.733631 825.055972 801.581328 853.615425 801.581328z" p-id="5406" fill="#707070"></path></svg>