<?xml version="1.0" standalone="no"?><!DOCTYPE svg PUBLIC "-//W3C//DTD SVG 1.1//EN" "http://www.w3.org/Graphics/SVG/1.1/DTD/svg11.dtd"><svg t="1581403446605" class="icon" viewBox="0 0 1024 1024" version="1.1" xmlns="http://www.w3.org/2000/svg" p-id="2357" xmlns:xlink="http://www.w3.org/1999/xlink" width="200" height="200"><defs><style type="text/css"></style></defs><path d="M909.680325 502.984672c-26.830065 40.687678-70.883397 104.819301-93.142353 137.119961-0.717338 22.73991-1.883907 58.43897-3.222391 93.906763 0.002047 0.168846 0.051165 0.325411 0.051165 0.497327 0 0.364297-0.098237 0.703011-0.107447 1.065262-0.008186 0.211824-0.016373 0.419556-0.024559 0.63138l-0.038886-0.002047c-0.908696 21.782096-18.717294 39.198767-40.721447 39.198767-22.583344 0-40.891316-18.307971-40.891316-40.893362 0-1.606591 0.291642-3.13234 0.472767-4.692882 2.140757-57.105602 3.804652-114.208135 3.804652-114.208135s69.657476-100.623745 105.790418-155.387c10.014074-15.214517 9.951653-38.652322-19.264762-49.757241-61.563124-23.406083-171.240059-62.632479-171.240059-62.632479s-70.749344-93.939509-111.48307-145.754618c-12.682857-16.156982-39.001269-19.444864-53.642734-1.100054-41.149189 51.612495-114.000404 146.830113-114.000404 146.830113s-108.491946 38.579667-170.550351 62.058404c-26.618241 10.069333-31.122835 35.106566-17.915022 55.487755 36.100196 55.758931 100.644211 150.211117 100.644211 150.211117s1.922792 116.062366 4.547573 182.709275c1.315972 33.506115 21.185508 41.066301 47.034223 33.890878 63.97915-17.72571 173.281555-51.080376 173.281555-51.080376s106.915032 32.650631 170.873716 50.606585l0.413416 0.735757 31.375591 7.175423c19.459191 2.675946 34.499745 19.196201 34.499745 39.392172 0 22.055318-17.880229 39.937594-39.937594 39.937594-2.042519 0-4.004197-0.305969-5.965875-0.600681l-0.042979 0.203638-1.63729-0.372483c-0.345877-0.069585-0.682545-0.158612-1.026376-0.234337l-34.70543-7.91425 0.102331-0.425695c-46.402843-12.93152-117.269867-34.224476-154.005536-45.343721-36.009122 10.881838-104.876606 31.505551-151.488203 44.435025-13.020548 3.598968-25.829272 5.429663-38.10076 5.429663-63.358003 0-109.463064-47.139623-112.106264-114.644063-1.930979-48.770773-3.450589-122.222669-4.168949-160.13207-21.092387-31.029714-61.618383-90.937129-88.010473-131.701554-20.346397-31.404244-25.668613-68.836785-14.58109-102.660124 10.961656-33.403784 37.222763-60.119239 72.061222-73.303516 45.400003-17.175171 113.988124-41.850154 149.35154-54.508451 23.540136-30.650067 69.982888-90.906429 100.31573-128.96421 21.886473-27.418466 54.447053-43.1211 89.36226-43.1211 35.673477 0 70.081125 16.70752 92.059696 44.693922 29.855982 37.9708 74.765821 97.131201 97.798397 127.594003 35.682687 12.837376 104.778368 37.83777 149.807934 54.962799 35.921117 13.643742 61.659315 39.550785 72.480778 72.948429C934.287769 437.757089 929.155888 473.368144 909.680325 502.984672z" p-id="2358" fill="#707070"></path></svg>