<?xml version="1.0" standalone="no"?><!DOCTYPE svg PUBLIC "-//W3C//DTD SVG 1.1//EN" "http://www.w3.org/Graphics/SVG/1.1/DTD/svg11.dtd"><svg t="1581406489307" class="icon" viewBox="0 0 1024 1024" version="1.1" xmlns="http://www.w3.org/2000/svg" p-id="3077" xmlns:xlink="http://www.w3.org/1999/xlink" width="200" height="200"><defs><style type="text/css"></style></defs><path d="M819.645752 940.335509 204.353225 940.335509c-60.681034 0-109.87341-49.192376-109.87341-109.87341L94.479815 720.588689c0-24.272823 19.676132-43.952025 43.948955-43.952025s43.948955 19.678178 43.948955 43.952025l0 87.896886c0 24.272823 19.676132 43.952025 43.948955 43.952025l571.34255 0c24.272823 0 43.948955-19.678178 43.948955-43.952025l0-87.896886c0-24.272823 19.678178-43.952025 43.948955-43.952025 24.272823 0 43.948955 19.678178 43.948955 43.952025l0 109.87341C929.519162 891.143133 880.326786 940.335509 819.645752 940.335509zM696.611601 576.210417c-17.164938 17.161868-44.99068 17.161868-62.155618 0-17.161868-17.164938-17.161868-44.99068 0-62.153572L788.400121 360.112708c17.164938-17.164938 44.99068-17.164938 62.155618 0 17.161868 17.161868 17.161868 44.988634 0 62.153572L696.611601 576.210417zM542.67872 730.032782c-17.161868 17.161868-44.988634 17.161868-62.153572 0L172.758646 422.266279c-17.161868-17.164938-17.161868-44.99068 0-62.153572 17.164938-17.164938 44.99068-17.164938 62.155618 0L467.707215 592.906681 467.707215 127.611399c0-24.272823 19.678178-43.946908 43.949978-43.946908 24.272823 0 43.948955 19.674085 43.948955 43.946908L555.606147 676.981519c0 4.28049-0.804319 8.336876-1.947352 12.251022C556.925189 703.487196 553.782615 718.92684 542.67872 730.032782z" p-id="3078" fill="#707070"></path></svg>