<?xml version="1.0" standalone="no"?><!DOCTYPE svg PUBLIC "-//W3C//DTD SVG 1.1//EN" "http://www.w3.org/Graphics/SVG/1.1/DTD/svg11.dtd"><svg t="1581406536968" class="icon" viewBox="0 0 1024 1024" version="1.1" xmlns="http://www.w3.org/2000/svg" p-id="3441" xmlns:xlink="http://www.w3.org/1999/xlink" width="200" height="200"><defs><style type="text/css"></style></defs><path d="M831.905984 512.36839c0-22.200628 17.999956-40.198537 40.200584-40.198537 22.202675 0 40.198537 17.995863 40.200584 40.196491l0 0 0 241.203504c0 55.506175-44.995797 100.500948-100.498902 100.500948L208.803583 854.070796c-55.506175 0-100.502995-44.99375-100.502995-100.500948L108.300588 271.167956c0-55.504128 44.995797-100.500948 100.502995-100.500948l603.004667 0c55.502082 0 100.498902 44.995797 100.498902 100.500948l0 60.296271-0.552585 0c0.446162 14.82566-6.211469 29.467125-19.384489 37.400818L529.904789 587.195609c-0.423649 0.25685-0.88209 0.379647-1.312902 0.617054-0.579191 0.312108-1.179872 0.552585-1.772366 0.833995-14.556531 7.125281-31.356149 4.331655-43.020816-6.337335L268.924869 450.298729c-18.87386-11.596106-25.342178-37.275975-14.443967-57.359382 10.896164-20.082384 35.030841-26.964118 53.902654-15.369036l203.02395 124.727723L831.90803 309.246203l0-17.981537c0-22.202675-17.997909-40.198537-40.200584-40.198537L228.903364 251.066129c-22.202675 0-40.200584 17.995863-40.200584 40.198537l0 442.205401c0 22.198581 17.997909 40.198537 40.200584 40.198537l562.804083 0c22.202675 0 40.200584-17.999956 40.200584-40.198537L831.90803 512.378623C831.90803 512.37453 831.905984 512.372483 831.905984 512.36839z" p-id="3442" fill="#707070"></path></svg>