<?xml version="1.0" standalone="no"?><!DOCTYPE svg PUBLIC "-//W3C//DTD SVG 1.1//EN" "http://www.w3.org/Graphics/SVG/1.1/DTD/svg11.dtd"><svg t="1581403370292" class="icon" viewBox="0 0 1024 1024" version="1.1" xmlns="http://www.w3.org/2000/svg" p-id="1737" xmlns:xlink="http://www.w3.org/1999/xlink" width="200" height="200"><defs><style type="text/css"></style></defs><path d="M926.811494 747.846496c-0.082888 24.064069-19.602454 43.547819-43.684942 43.547819s-43.600007-19.482727-43.682895-43.547819l-0.01535 0 0-65.695235c0-24.13263-19.563568-43.696198-43.698245-43.696198L686.484963 638.455063c-24.13263 0-43.698245 19.563568-43.698245 43.696198l0 109.2451c0 24.136723 19.565615 43.698245 43.698245 43.698245l65.531506 0c0.004093 0 0.00921 0 0.01535 0 0.004093 0 0.008186 0 0.01535 0l0.13303 0 0 0.01535c24.064069 0.082888 43.549865 19.59836 43.549865 43.680848 0 24.084535-19.484773 43.602054-43.549865 43.684942l0 0.01535L642.786719 922.491095c-48.266283 0-87.396489-39.127136-87.396489-87.396489L555.390229 638.455063c0-48.2714 39.129182-87.398536 87.396489-87.398536l196.641589 0c48.269353 0 87.398536 39.127136 87.398536 87.398536l0 109.391433L926.811494 747.846496zM839.428308 463.663108 642.786719 463.663108c-48.266283 0-87.396489-39.131229-87.396489-87.396489L555.390229 179.62503c0-48.269353 39.129182-87.396489 87.396489-87.396489l196.641589 0c48.269353 0 87.398536 39.127136 87.398536 87.396489l0 196.641589C926.826843 424.530856 887.697661 463.663108 839.428308 463.663108zM839.428308 223.321228c0-24.13263-19.563568-43.696198-43.698245-43.696198L686.484963 179.62503c-24.13263 0-43.698245 19.563568-43.698245 43.696198l0 108.563578c0 24.134677 19.565615 44.381813 43.698245 44.381813l109.2451 0c24.134677 0 43.698245-19.565615 43.698245-43.700291L839.428308 223.321228zM358.749664 922.490072l-152.943344 0c-60.332087 0-109.2451-48.910966-109.2451-109.2451L96.561219 660.301627c0-60.33618 48.913013-109.2451 109.2451-109.2451l152.943344 0c60.334133 0 109.247146 48.90892 109.247146 109.2451l0 152.943344C467.99681 873.579105 419.083797 922.490072 358.749664 922.490072zM380.600321 682.151261c0-24.13263-19.565615-43.696198-43.700291-43.696198L227.65493 638.455063c-24.13263 0-43.698245 19.563568-43.698245 43.696198l0 109.2451c0 24.136723 19.565615 43.698245 43.698245 43.698245l109.2451 0c24.134677 0 43.700291-19.561521 43.700291-43.698245L380.600321 682.151261zM380.600321 463.663108 183.956685 463.663108c-48.266283 0-87.396489-39.131229-87.396489-87.396489L96.560196 179.62503c0-48.269353 39.129182-87.396489 87.396489-87.396489l196.643636 0c48.264237 0 87.396489 39.127136 87.396489 87.396489l0 196.641589C467.99681 424.530856 428.865581 463.663108 380.600321 463.663108zM380.600321 223.321228c0-24.13263-19.565615-43.696198-43.700291-43.696198L227.65493 179.62503c-24.13263 0-43.698245 19.563568-43.698245 43.696198l0 109.2451c0 24.134677 19.565615 43.700291 43.698245 43.700291l109.2451 0c24.134677 0 43.700291-19.565615 43.700291-43.700291L380.600321 223.321228z" p-id="1738" fill="#707070"></path></svg>