<?xml version="1.0" standalone="no"?><!DOCTYPE svg PUBLIC "-//W3C//DTD SVG 1.1//EN" "http://www.w3.org/Graphics/SVG/1.1/DTD/svg11.dtd"><svg t="1581406267144" class="icon" viewBox="0 0 1024 1024" version="1.1" xmlns="http://www.w3.org/2000/svg" p-id="2895" xmlns:xlink="http://www.w3.org/1999/xlink" width="200" height="200"><defs><style type="text/css"></style></defs><path d="M937.541883 937.540859c-18.006096 18.006096-47.196928 18.006096-65.202001 0l-65.199954-65.199954c-18.004049-18.008142-18.004049-47.196928 0-65.202001 18.006096-18.004049 47.196928-18.004049 65.199954 0l65.202001 65.202001C955.544909 890.341884 955.544909 919.53681 937.541883 937.540859zM187.734732 741.938949c-153.039535-153.039535-153.039535-401.165706 0-554.204218s401.165706-153.039535 554.204218 0 153.039535 401.165706 0 554.204218C588.900438 894.980531 340.774267 894.980531 187.734732 741.938949zM676.738995 252.933663c-117.03246-117.02939-306.774919-117.02939-423.804309 0-117.030413 117.03246-117.030413 306.772872 0 423.804309 117.030413 117.030413 306.772872 117.030413 423.804309 0C793.769408 559.706535 793.769408 369.966123 676.738995 252.933663z" p-id="2896" fill="#707070"></path></svg>