<?xml version="1.0" standalone="no"?><!DOCTYPE svg PUBLIC "-//W3C//DTD SVG 1.1//EN" "http://www.w3.org/Graphics/SVG/1.1/DTD/svg11.dtd"><svg t="1581403428579" class="icon" viewBox="0 0 1024 1024" version="1.1" xmlns="http://www.w3.org/2000/svg" p-id="2091" xmlns:xlink="http://www.w3.org/1999/xlink" width="200" height="200"><defs><style type="text/css"></style></defs><path d="M810.629401 917.282466 213.371622 917.282466c-58.904575 0-106.656135-47.748491-106.656135-106.654089L106.715487 213.368552c0-58.902528 47.750537-106.651019 106.656135-106.651019l597.257779 0c58.902528 0 106.654089 47.748491 106.654089 106.651019l0 597.259826C917.28349 869.533976 869.532953 917.282466 810.629401 917.282466zM831.958172 234.69937c0-23.561625-19.10001-42.661635-42.661635-42.661635L234.698347 192.037734c-23.561625 0-42.661635 19.10001-42.661635 42.661635l0 554.59819c0 23.559579 19.10001 42.659589 42.661635 42.659589l554.599214 0c23.561625 0 42.661635-19.10001 42.661635-42.659589L831.959196 234.69937zM511.997953 575.990407c-141.367705 0-255.968789-114.601084-255.968789-255.968789 0-23.561625 19.102057-42.663682 42.661635-42.663682 23.561625 0 42.661635 19.102057 42.661635 42.663682 0 94.245478 76.402087 170.643472 170.645518 170.643472 94.245478 0 170.645518-76.397994 170.645518-170.643472 0-23.561625 19.10001-42.663682 42.661635-42.663682s42.661635 19.102057 42.661635 42.663682C767.966743 461.389322 653.364635 575.990407 511.997953 575.990407z" p-id="2092" fill="#707070"></path></svg>