<?xml version="1.0" standalone="no"?><!DOCTYPE svg PUBLIC "-//W3C//DTD SVG 1.1//EN" "http://www.w3.org/Graphics/SVG/1.1/DTD/svg11.dtd"><svg t="1581417207826" class="icon" viewBox="0 0 1024 1024" version="1.1" xmlns="http://www.w3.org/2000/svg" p-id="5177" xmlns:xlink="http://www.w3.org/1999/xlink" width="200" height="200"><defs><style type="text/css"></style></defs><path d="M837.617056 924.447656 186.382944 924.447656c-59.941184 0-108.539019-48.594765-108.539019-108.539019L77.843926 338.338798c0-59.94323 48.596811-108.539019 108.539019-108.539019l33.918507 0c0 0 61.042261-9.896394 87.056752-40.515762 14.660908-17.254989 31.187303-37.619806 45.121664-54.425563 6.460132-7.795547 47.405683-35.307134 76.080769-35.307134 46.761 0 118.294197 0 165.523871 0 32.757055 0 72.093968 28.871561 78.983889 37.180807 13.671371 16.489556 30.786167 35.142381 43.741223 52.760644 21.635763 29.429263 86.210477 40.307008 86.210477 40.307008l34.597983 0c59.94323 0 108.539019 48.594765 108.539019 108.539019l0 477.56984C946.155051 875.852892 897.560286 924.447656 837.617056 924.447656zM859.32445 360.045169c0-23.976064-19.439748-43.412742-43.417859-43.412742l-59.882855 0-2.524496 0c-32.921807 0-72.495104-24.994254-85.020372-39.946804-14.066367-16.793478-30.334889-36.210713-44.12087-52.66957-10.647501-12.709463-35.789111-36.95261-77.081563-36.95261-21.859867 0-47.926546 0-69.872371 0-40.475853 0-62.186318 18.35402-80.552617 40.280402-13.32447 15.903202-28.582989 34.118052-41.828664 49.932226-11.995195 14.320147-52.200896 39.356356-83.841523 39.356356l-2.530636 0-60.558238 0c-23.976064 0-43.413765 19.436678-43.413765 43.412742L164.67862 794.201244c0 23.976064 19.436678 43.415812 43.413765 43.415812L815.906591 837.617056c23.978111 0 43.417859-19.439748 43.417859-43.415812L859.32445 360.045169zM663.729703 598.829578c-23.978111 0-43.417859-19.436678-43.417859-43.413765 0-2.77623 0.319272-5.472642 0.818645-8.103562-4.218068-56.870242-51.182706-101.846596-109.131513-101.846596-60.72299 0-109.949134 49.222051-109.949134 109.947088 0 60.720943 49.226145 109.949134 109.949134 109.949134 8.870018 0 17.279548-1.569752 25.489534-3.668553 5.41636-2.429329 11.381212-3.848655 17.702174-3.848655 23.978111 0 43.415812 19.439748 43.415812 43.417859 0 22.723537-17.522072 41.160445-39.759539 43.046399-15.053857 3.753487-30.629601 6.202259-46.846958 6.202259-107.748003 0-195.10049-87.349417-195.10049-195.098443 0-107.751073 87.351464-195.10049 195.10049-195.10049 107.416452 0 194.510042 86.822414 195.046255 194.115046 0.008186 0.336668 0.100284 0.648776 0.100284 0.98749C707.144492 579.3929 687.707814 598.829578 663.729703 598.829578z" p-id="5178" fill="#707070"></path></svg>