<?xml version="1.0" standalone="no"?><!DOCTYPE svg PUBLIC "-//W3C//DTD SVG 1.1//EN" "http://www.w3.org/Graphics/SVG/1.1/DTD/svg11.dtd"><svg t="1581406516500" class="icon" viewBox="0 0 1024 1024" version="1.1" xmlns="http://www.w3.org/2000/svg" p-id="3259" xmlns:xlink="http://www.w3.org/1999/xlink" width="200" height="200"><defs><style type="text/css"></style></defs><path d="M932.659689 711.912076l-0.314155-0.171915c-6.843872 12.727882-20.125363 21.48022-35.58752 21.48022-22.405289 0-40.566928-18.163685-40.566928-40.566928 0-7.29208 2.077312-14.038738 5.446036-19.951401l-0.429789-0.237407c9.825786-17.555841 15.900132-37.498032 15.900132-59.045791 0-67.213821-54.487985-121.701806-121.701806-121.701806-10.271948 0-20.084431 1.654686-29.612435 4.052293l-1.194198-0.931209c-3.14155 0.780783-6.377244 1.315972-9.760295 1.315972-22.390963 0-40.541345-18.142196-40.562834-40.524972l-0.221034-0.171915c0.036839-1.445932 0.216941-2.854001 0.216941-4.308119 0-89.617064-72.649624-162.269757-162.269757-162.269757s-162.269757 72.65167-162.269757 162.269757c0 1.454118 0.180102 2.864234 0.216941 4.308119l-0.221034 0.171915c-0.024559 22.382776-18.171871 40.524972-40.562834 40.524972-3.38305 0-6.618744-0.535189-9.760295-1.315972l-1.192152 0.931209c-9.529027-2.397606-19.342534-4.052293-29.614481-4.052293-67.213821 0-121.701806 54.487985-121.701806 121.701806s54.487985 121.703853 121.701806 121.703853l161.679309 0 163.449629 0 161.679309 0c22.405289 0 40.566928 18.161638 40.566928 40.564881 0 22.407336-18.161638 40.566928-40.566928 40.566928L268.595364 816.254515c-112.024399 0-202.836685-90.812285-202.836685-202.836685 0-112.022353 90.812285-202.836685 202.836685-202.836685 1.222851 0 2.403746 0.162706 3.622504 0.184195 19.273972-115.166973 119.142517-203.021903 239.781108-203.021903s220.508159 87.85493 239.784178 203.021903c1.216711-0.022513 2.397606-0.184195 3.620457-0.184195 112.024399 0 202.836685 90.814332 202.836685 202.836685C958.24132 649.184429 948.908768 682.735569 932.659689 711.912076z" p-id="3260" fill="#707070"></path></svg>